<svg width="40" height="42" viewBox="0 0 40 42" fill="none" xmlns="http://www.w3.org/2000/svg">
<rect width="40" height="41.95" rx="20" fill="#BF9C40"/>
<g clip-path="url(#clip0_254_3135)">
<g clip-path="url(#clip1_254_3135)">
<g clip-path="url(#clip2_254_3135)">
<mask id="mask0_254_3135" style="mask-type:luminance" maskUnits="userSpaceOnUse" x="9" y="9" width="22" height="25">
<path d="M30.5 9.9502H9.5V33.9502H30.5V9.9502Z" fill="white"/>
</mask>
<g mask="url(#mask0_254_3135)">
<path d="M20.0048 16.5595C17.0235 16.5595 14.6189 18.9642 14.6189 21.9454C14.6189 24.9267 17.0235 27.3313 20.0048 27.3313C22.986 27.3313 25.3907 24.9267 25.3907 21.9454C25.3907 18.9642 22.986 16.5595 20.0048 16.5595ZM20.0048 25.447C18.0782 25.447 16.5032 23.8767 16.5032 21.9454C16.5032 20.0142 18.0735 18.4438 20.0048 18.4438C21.936 18.4438 23.5064 20.0142 23.5064 21.9454C23.5064 23.8767 21.9314 25.447 20.0048 25.447ZM26.8673 16.3392C26.8673 17.0376 26.3048 17.5954 25.611 17.5954C24.9126 17.5954 24.3548 17.0329 24.3548 16.3392C24.3548 15.6454 24.9173 15.0829 25.611 15.0829C26.3048 15.0829 26.8673 15.6454 26.8673 16.3392ZM30.4345 17.6142C30.3548 15.9313 29.9704 14.4407 28.7376 13.2126C27.5095 11.9845 26.0189 11.6001 24.336 11.5157C22.6017 11.4173 17.4032 11.4173 15.6689 11.5157C13.9907 11.5954 12.5001 11.9798 11.2673 13.2079C10.0345 14.436 9.65478 15.9267 9.57041 17.6095C9.47197 19.3438 9.47197 24.5423 9.57041 26.2767C9.6501 27.9595 10.0345 29.4501 11.2673 30.6782C12.5001 31.9063 13.986 32.2907 15.6689 32.3751C17.4032 32.4735 22.6017 32.4735 24.336 32.3751C26.0189 32.2954 27.5095 31.911 28.7376 30.6782C29.9657 29.4501 30.3501 27.9595 30.4345 26.2767C30.5329 24.5423 30.5329 19.3485 30.4345 17.6142ZM28.1939 28.1376C27.8282 29.0563 27.1204 29.7642 26.197 30.1345C24.8142 30.6829 21.5329 30.5563 20.0048 30.5563C18.4767 30.5563 15.1907 30.6782 13.8126 30.1345C12.8938 29.7688 12.186 29.061 11.8157 28.1376C11.2673 26.7548 11.3938 23.4735 11.3938 21.9454C11.3938 20.4173 11.272 17.1313 11.8157 15.7532C12.1813 14.8345 12.8892 14.1267 13.8126 13.7563C15.1954 13.2079 18.4767 13.3345 20.0048 13.3345C21.5329 13.3345 24.8189 13.2126 26.197 13.7563C27.1157 14.122 27.8235 14.8298 28.1939 15.7532C28.7423 17.136 28.6157 20.4173 28.6157 21.9454C28.6157 23.4735 28.7423 26.7595 28.1939 28.1376Z" fill="#7C0A00"/>
</g>
</g>
</g>
</g>
<defs>
<clipPath id="clip0_254_3135">
<rect width="24" height="24" fill="white" transform="translate(8 9.9502)"/>
</clipPath>
<clipPath id="clip1_254_3135">
<rect width="24" height="24" fill="white" transform="translate(8 9.9502)"/>
</clipPath>
<clipPath id="clip2_254_3135">
<rect width="21" height="24" fill="white" transform="translate(9.5 9.9502)"/>
</clipPath>
</defs>
</svg>
