<svg width="40" height="42" viewBox="0 0 40 42" fill="none" xmlns="http://www.w3.org/2000/svg">
<rect width="40" height="41.95" rx="20" fill="#BF9C40"/>
<g clip-path="url(#clip0_254_3149)">
<g clip-path="url(#clip1_254_3149)">
<g clip-path="url(#clip2_254_3149)">
<path d="M14.2006 30.9502H9.84688V16.9299H14.2006V30.9502ZM12.0214 15.0174C10.6292 15.0174 9.5 13.8643 9.5 12.4721C9.5 11.8034 9.76565 11.162 10.2385 10.6892C10.7114 10.2163 11.3527 9.95068 12.0214 9.95068C12.6901 9.95068 13.3315 10.2163 13.8043 10.6892C14.2772 11.162 14.5428 11.8034 14.5428 12.4721C14.5428 13.8643 13.4131 15.0174 12.0214 15.0174ZM30.4953 30.9502H26.1509V24.1252C26.1509 22.4987 26.1181 20.4127 23.8873 20.4127C21.6237 20.4127 21.2769 22.1799 21.2769 24.008V30.9502H16.9278V16.9299H21.1034V18.8424H21.1644C21.7456 17.7409 23.1655 16.5784 25.2838 16.5784C29.69 16.5784 30.5 19.4799 30.5 23.2487V30.9502H30.4953Z" fill="#7C0A00"/>
</g>
</g>
</g>
<defs>
<clipPath id="clip0_254_3149">
<rect width="24" height="24" fill="white" transform="translate(8 9.9502)"/>
</clipPath>
<clipPath id="clip1_254_3149">
<rect width="24" height="24" fill="white" transform="translate(8 9.9502)"/>
</clipPath>
<clipPath id="clip2_254_3149">
<rect width="21" height="24" fill="white" transform="translate(9.5 9.9502)"/>
</clipPath>
</defs>
</svg>
