<svg width="40" height="42" viewBox="0 0 40 42" fill="none" xmlns="http://www.w3.org/2000/svg">
<rect width="40" height="41.95" rx="20" fill="#BF9C40"/>
<g clip-path="url(#clip0_254_3144)">
<g clip-path="url(#clip1_254_3144)">
<path d="M29.533 17.0619C29.5482 17.2751 29.5482 17.4884 29.5482 17.7016C29.5482 24.2041 24.599 31.6965 15.5533 31.6965C12.7665 31.6965 10.1777 30.8893 8 29.4884C8.39595 29.534 8.77662 29.5493 9.18781 29.5493C11.4873 29.5493 13.604 28.7726 15.2944 27.4478C13.132 27.4021 11.3198 25.9858 10.6954 24.0366C11 24.0822 11.3045 24.1127 11.6244 24.1127C12.066 24.1127 12.5076 24.0518 12.9188 23.9452C10.665 23.4883 8.97458 21.5086 8.97458 19.1178V19.0569C9.62937 19.4224 10.3909 19.6508 11.1979 19.6812C9.87303 18.798 9.00505 17.2904 9.00505 15.5848C9.00505 14.6711 9.24866 13.8335 9.67508 13.1026C12.0964 16.0873 15.736 18.0365 19.8172 18.2498C19.7411 17.8843 19.6954 17.5036 19.6954 17.1229C19.6954 14.4122 21.8883 12.2041 24.6141 12.2041C26.0304 12.2041 27.3095 12.798 28.208 13.7574C29.3197 13.5442 30.3857 13.133 31.3299 12.5696C30.9643 13.7117 30.1877 14.6711 29.1674 15.2802C30.1573 15.1737 31.1167 14.8995 31.9999 14.5188C31.33 15.4934 30.4924 16.3614 29.533 17.0619Z" fill="#7C0A00"/>
</g>
</g>
<defs>
<clipPath id="clip0_254_3144">
<rect width="24" height="24" fill="white" transform="translate(8 9.9502)"/>
</clipPath>
<clipPath id="clip1_254_3144">
<rect width="24" height="24" fill="white" transform="translate(8 9.9502)"/>
</clipPath>
</defs>
</svg>
